<svg width="1200" height="675" viewBox="0 0 1200 675" fill="none" xmlns="http://www.w3.org/2000/svg">
  <defs>
    <linearGradient id="bg" x1="0" y1="675" x2="1200" y2="0" gradientUnits="userSpaceOnUse">
      <stop stop-color="#07080B"/>
      <stop offset="0.55" stop-color="#334155"/>
      <stop offset="1" stop-color="#F472B6"/>
    </linearGradient>
    <radialGradient id="glow" cx="0" cy="0" r="1" gradientUnits="userSpaceOnUse" gradientTransform="translate(360 220) rotate(25) scale(560 420)">
      <stop stop-color="#F472B6" stop-opacity="0.30"/>
      <stop offset="0.55" stop-color="#22D3EE" stop-opacity="0.14"/>
      <stop offset="1" stop-color="#0F172A" stop-opacity="0"/>
    </radialGradient>
    <filter id="b" x="-20%" y="-20%" width="140%" height="140%" color-interpolation-filters="sRGB">
      <feGaussianBlur stdDeviation="16"/>
    </filter>
  </defs>

  <rect width="1200" height="675" fill="url(#bg)"/>
  <g filter="url(#b)">
    <ellipse cx="360" cy="220" rx="560" ry="420" fill="url(#glow)"/>
    <ellipse cx="980" cy="520" rx="420" ry="300" fill="rgba(255,255,255,0.09)"/>
  </g>

  <g opacity="0.82">
    <path d="M160 210C260 140 380 120 520 150C660 180 760 270 910 260C1030 252 1120 210 1200 160" stroke="rgba(255,255,255,0.18)" stroke-width="4" stroke-linecap="round"/>
    <path d="M0 520C120 450 240 420 380 450C520 480 640 560 780 560C920 560 1060 500 1200 420" stroke="rgba(255,255,255,0.14)" stroke-width="4" stroke-linecap="round"/>
  </g>
</svg>

