<svg width="1200" height="675" viewBox="0 0 1200 675" fill="none" xmlns="http://www.w3.org/2000/svg">
  <defs>
    <linearGradient id="bg" x1="0" y1="0" x2="1200" y2="675" gradientUnits="userSpaceOnUse">
      <stop stop-color="#101A12"/>
      <stop offset="0.46" stop-color="#1E3A1B"/>
      <stop offset="1" stop-color="#65A30D"/>
    </linearGradient>
    <linearGradient id="glow" x1="140" y1="90" x2="1020" y2="640" gradientUnits="userSpaceOnUse">
      <stop stop-color="#A3E635" stop-opacity="0.85"/>
      <stop offset="1" stop-color="#84CC16" stop-opacity="0"/>
    </linearGradient>
    <pattern id="grid" width="48" height="48" patternUnits="userSpaceOnUse">
      <path d="M48 0H0V48" fill="none" stroke="rgba(255,255,255,0.08)" stroke-width="1"/>
    </pattern>
    <filter id="b" x="-20%" y="-20%" width="140%" height="140%" color-interpolation-filters="sRGB">
      <feGaussianBlur stdDeviation="22"/>
    </filter>
  </defs>

  <rect width="1200" height="675" fill="url(#bg)"/>
  <rect width="1200" height="675" fill="url(#grid)" opacity="0.55"/>

  <g filter="url(#b)">
    <circle cx="240" cy="120" r="190" fill="url(#glow)"/>
    <circle cx="970" cy="130" r="220" fill="rgba(132,204,22,0.24)"/>
    <circle cx="760" cy="610" r="250" fill="rgba(163,230,53,0.16)"/>
  </g>

  <g opacity="0.9">
    <rect x="340" y="315" width="52" height="140" rx="16" fill="rgba(255,255,255,0.45)"/>
    <rect x="426" y="270" width="52" height="185" rx="16" fill="rgba(255,255,255,0.58)"/>
    <rect x="512" y="228" width="52" height="227" rx="16" fill="rgba(255,255,255,0.7)"/>
    <path d="M590 386L660 306L730 338L812 246" stroke="rgba(255,255,255,0.66)" stroke-width="18" stroke-linecap="round" stroke-linejoin="round"/>
    <path d="M786 246H812V272" stroke="rgba(255,255,255,0.66)" stroke-width="18" stroke-linecap="round" stroke-linejoin="round"/>
  </g>
</svg>
