<svg width="1200" height="675" viewBox="0 0 1200 675" fill="none" xmlns="http://www.w3.org/2000/svg">
  <defs>
    <linearGradient id="bg" x1="0" y1="0" x2="1200" y2="675" gradientUnits="userSpaceOnUse">
      <stop stop-color="#0B0D12"/>
      <stop offset="0.45" stop-color="#3B1B62"/>
      <stop offset="1" stop-color="#F97316"/>
    </linearGradient>
    <radialGradient id="sun" cx="0" cy="0" r="1" gradientUnits="userSpaceOnUse" gradientTransform="translate(860 220) rotate(20) scale(520 420)">
      <stop stop-color="#FDBA74" stop-opacity="0.60"/>
      <stop offset="0.55" stop-color="#FB7185" stop-opacity="0.22"/>
      <stop offset="1" stop-color="#F97316" stop-opacity="0"/>
    </radialGradient>
    <pattern id="pap" width="64" height="64" patternUnits="userSpaceOnUse">
      <path d="M0 64L64 0" stroke="rgba(255,255,255,0.06)" stroke-width="2"/>
      <path d="M-16 64L64 -16" stroke="rgba(255,255,255,0.04)" stroke-width="2"/>
    </pattern>
    <filter id="b" x="-20%" y="-20%" width="140%" height="140%" color-interpolation-filters="sRGB">
      <feGaussianBlur stdDeviation="20"/>
    </filter>
  </defs>

  <rect width="1200" height="675" fill="url(#bg)"/>
  <rect width="1200" height="675" fill="url(#pap)" opacity="0.9"/>
  <g filter="url(#b)">
    <circle cx="860" cy="220" r="360" fill="url(#sun)"/>
    <circle cx="240" cy="520" r="300" fill="rgba(96,165,250,0.14)"/>
  </g>

  <g opacity="0.9">
    <path d="M310 500C380 430 470 390 560 380C650 370 730 390 810 340C900 282 950 210 1010 150" stroke="rgba(255,255,255,0.30)" stroke-width="6" stroke-linecap="round"/>
    <circle cx="560" cy="380" r="10" fill="rgba(255,255,255,0.55)"/>
    <circle cx="810" cy="340" r="10" fill="rgba(255,255,255,0.45)"/>
    <circle cx="1010" cy="150" r="10" fill="rgba(255,255,255,0.35)"/>
  </g>

  <g opacity="0.95">
    <rect x="210" y="170" width="520" height="140" rx="24" fill="rgba(255,255,255,0.08)" stroke="rgba(255,255,255,0.16)"/>
    <path d="M260 215H520" stroke="rgba(255,255,255,0.40)" stroke-width="16" stroke-linecap="round"/>
    <path d="M260 258H630" stroke="rgba(255,255,255,0.28)" stroke-width="16" stroke-linecap="round"/>
  </g>
</svg>

