<svg width="1600" height="900" viewBox="0 0 1600 900" fill="none" xmlns="http://www.w3.org/2000/svg">
  <rect width="1600" height="900" fill="#0B1220" />
  <circle cx="240" cy="220" r="380" fill="#0EA5E9" fill-opacity="0.28" />
  <circle cx="1360" cy="120" r="300" fill="#22D3EE" fill-opacity="0.22" />
  <circle cx="1240" cy="760" r="420" fill="#14B8A6" fill-opacity="0.2" />
  <rect x="140" y="110" width="1320" height="680" rx="44" fill="url(#panel)" fill-opacity="0.82" />
  <path d="M340 620L560 460L730 560L960 360L1240 540" stroke="#E0F2FE" stroke-opacity="0.72" stroke-width="16" stroke-linecap="round" stroke-linejoin="round"/>
  <circle cx="560" cy="460" r="16" fill="#E0F2FE"/>
  <circle cx="730" cy="560" r="16" fill="#E0F2FE"/>
  <circle cx="960" cy="360" r="16" fill="#E0F2FE"/>
  <path d="M1180 280L1300 220L1240 340L1220 300L1140 380L1100 340L1180 260L1180 280Z" fill="#BAE6FD" fill-opacity="0.95"/>
  <rect x="320" y="640" width="520" height="14" rx="7" fill="#BAE6FD" fill-opacity="0.45"/>
  <rect x="320" y="674" width="380" height="14" rx="7" fill="#BAE6FD" fill-opacity="0.32"/>
  <defs>
    <linearGradient id="panel" x1="220" y1="140" x2="1400" y2="760" gradientUnits="userSpaceOnUse">
      <stop stop-color="#082F49" stop-opacity="0.84"/>
      <stop offset="0.52" stop-color="#0F172A" stop-opacity="0.88"/>
      <stop offset="1" stop-color="#134E4A" stop-opacity="0.82"/>
    </linearGradient>
  </defs>
</svg>
